<?xml version="1.0" encoding="UTF-8"?>
<svg id="Capa_2" data-name="Capa 2" xmlns="http://www.w3.org/2000/svg" viewBox="0 0 251.46 123.54">
  <defs>
    <style>
      .cls-1 {
        fill: #1e2a74;
        stroke-width: 0px;
      }
    </style>
  </defs>
  <path class="cls-1" d="M131.16,116.05c-.04-.46-.08-.76-.08-1.05,0-22.31,0-44.62,0-66.94,0-3.79.01-7.59-.01-11.38,0-.96.31-1.7,1-2.37,6.04-5.88,12.06-11.78,18.09-17.68,5.39-5.27,10.79-10.54,16.19-15.79,1.22-1.18,2.74-1.11,3.89.14,11.15,12.08,22.3,24.16,33.45,36.24,1.29,1.39,1.27,2.69-.05,4.05-6.31,6.53-12.63,13.05-18.94,19.57-9.35,9.67-18.71,19.33-28.06,29-6.67,6.89-13.34,13.78-20.01,20.68-1.58,1.64-3.16,3.28-4.74,4.91-.18.18-.39.34-.73.62Z"/>
  <path class="cls-1" d="M120.07,115.98c-.67-.7-1.34-1.41-2.01-2.11-5.57-5.76-11.13-11.51-16.7-17.27-6.17-6.38-12.34-12.76-18.51-19.14-4.82-4.99-9.65-9.97-14.47-14.95-6.19-6.4-12.37-12.79-18.56-19.19-.7-.72-1.4-1.44-2.09-2.17-1.17-1.22-1.21-2.54-.06-3.8,2.53-2.77,5.08-5.51,7.62-8.27,8.65-9.38,17.31-18.75,25.96-28.13,1.13-1.23,2.69-1.28,3.89-.11,5.68,5.54,11.36,11.09,17.05,16.64,5.73,5.59,11.45,11.2,17.19,16.78.71.69,1.03,1.45,1.02,2.43-.01,26.1,0,52.21-.01,78.31,0,.28-.04.56-.07.84-.08.04-.16.09-.24.13Z"/>
  <path class="cls-1" d="M138.16,123.27c.16-.2.32-.41.5-.59,2.15-2.17,4.31-4.34,6.46-6.5,5.96-5.97,11.92-11.94,17.87-17.91,6.81-6.82,13.61-13.65,20.41-20.48,6.82-6.84,13.64-13.69,20.46-20.53,2.72-2.73,5.45-5.47,8.17-8.2,1.3-1.31,2.74-1.31,4.03.02,7.87,8.12,15.74,16.25,23.6,24.37,3.6,3.72,7.2,7.43,10.81,11.14,1.29,1.33,1.32,2.72.02,4.05-6.26,6.42-12.52,12.85-18.77,19.27-4.7,4.83-9.4,9.65-14.08,14.5-.8.83-1.7,1.12-2.81,1.12-13.34-.01-26.68,0-40.03,0-11.85,0-23.69,0-35.54,0-.35,0-.69-.03-1.04-.05-.02-.07-.05-.14-.07-.2Z"/>
  <path class="cls-1" d="M113.42,123.42c-.45.05-.71.1-.97.1-25.34,0-50.69,0-76.03,0-1.02,0-1.83-.32-2.56-1.07-7.12-7.35-14.27-14.69-21.41-22.02-3.8-3.9-7.59-7.8-11.39-11.69-1.42-1.45-1.42-2.77,0-4.23,6.71-6.92,13.4-13.84,20.11-20.77,4.79-4.95,9.59-9.9,14.39-14.85,1.03-1.06,2.6-1.1,3.65-.04,5.74,5.74,11.47,11.5,17.2,17.25.13.13.25.25.38.38,6.48,6.49,12.96,12.98,19.43,19.47,6.85,6.87,13.7,13.75,20.55,20.62,5.31,5.33,10.61,10.65,15.91,15.98.22.22.41.48.72.85Z"/>
</svg>